# xmcd
#
# Track frame offsets: 
#        150
#        14033
#        27075
#        38377
#        54512
#        68813
#        91932
#        108202
#        123367
#        139502
#        152984
#        167281
#        179951
#        196674
#        210027
#        226383
#        239911
#        253215
#
# Disc length: 3519 seconds
#
# Revision: 0
# Processed by: cddbd v1.5.2PL0 Copyright (c) Steve Scherf et al.
# Submitted via: ExactAudioCopyFreeDBPlugin 1.0
#
DISCID=ec0dbd12
DTITLE=Truck Stop - Das große Jubiläum - CD2
DYEAR=2018
DGENRE=Country
TTITLE0=Der wilde, wilde Westen (Neuaufnahme)
TTITLE1=Ich guck das Spiel, Schatz
TTITLE2=Großstadtrevier
TTITLE3=Raus aus meinem Kopf
TTITLE4=Tanz mit mir
TTITLE5=Schmuse-Medley
TTITLE6=Ich möcht' so gern Dave Dudley hör'n (Neuaufnahme 2015)
TTITLE7=Ein Hund ohne richtigen Namen
TTITLE8=Wenn mein Bier bloß so kalt wär....
TTITLE9=Wer hat die guten Zeiten abgeschafft
TTITLE10=Die Lady und der Tramp
TTITLE11=300 Jahre (wenn man uns addiert)
TTITLE12=Made in Germany
TTITLE13=Wo ist das Feuer?
TTITLE14=A7 Blues
TTITLE15=Die Rechnung bitte!
TTITLE16=Arizona (Neuaufnahme)
TTITLE17=Wir schenken uns nichts
EXTD=
EXTT0=
EXTT1=
EXTT2=
EXTT3=
EXTT4=
EXTT5=
EXTT6=
EXTT7=
EXTT8=
EXTT9=
EXTT10=
EXTT11=
EXTT12=
EXTT13=
EXTT14=
EXTT15=
EXTT16=
EXTT17=
PLAYORDER=
